<svg width="24" height="24" viewBox="0 0 24 24" fill="none" xmlns="http://www.w3.org/2000/svg">
<g clip-path="url(#clip0_171_514)">
<path d="M23.9992 12.073C23.9992 5.40405 18.6262 -0.00195312 11.9992 -0.00195312C5.36922 -0.000453125 -0.00378418 5.40405 -0.00378418 12.0745C-0.00378418 18.1 4.38522 23.095 10.1212 24.001V15.5635H7.07621V12.0745H10.1242V9.41205C10.1242 6.38655 11.9167 4.71555 14.6572 4.71555C15.9712 4.71555 17.3437 4.95105 17.3437 4.95105V7.92105H15.8302C14.3407 7.92105 13.8757 8.85255 13.8757 9.80805V12.073H17.2027L16.6717 15.562H13.8742V23.9995C19.6102 23.0935 23.9992 18.0985 23.9992 12.073Z" fill="white"/>
</g>
<defs>
<clipPath id="clip0_171_514">
<rect width="24" height="24" fill="white"/>
</clipPath>
</defs>
</svg>
