<svg width="56" height="56" viewBox="0 0 56 56" fill="none" xmlns="http://www.w3.org/2000/svg">
<path d="M33.6143 31.5132C35.0668 29.5313 35.7173 27.074 35.4358 24.6329C35.1543 22.1919 33.9615 19.9472 32.096 18.3479C30.2305 16.7486 27.83 15.9126 25.3746 16.0072C22.9192 16.1018 20.5901 17.1201 18.8532 18.8582C17.1164 20.5963 16.0998 22.9261 16.007 25.3816C15.9141 27.837 16.7518 30.237 18.3525 32.1013C19.9531 33.9656 22.1987 35.1568 24.6399 35.4366C27.0811 35.7164 29.5379 35.0641 31.5188 33.6102H31.5173C31.5613 33.6702 31.6103 33.7277 31.6643 33.7827L37.4393 39.5577C37.7206 39.8392 38.1022 39.9974 38.5001 39.9975C38.898 39.9977 39.2796 39.8397 39.5611 39.5585C39.8426 39.2772 40.0008 38.8957 40.0009 38.4978C40.001 38.0998 39.8431 37.7182 39.5618 37.4367L33.7868 31.6617C33.7332 31.6074 33.6756 31.5588 33.6143 31.5132ZM34.0013 25.7472C34.0013 26.8306 33.788 27.9034 33.3734 28.9044C32.9588 29.9053 32.3511 30.8148 31.585 31.5809C30.8189 32.3469 29.9094 32.9546 28.9085 33.3692C27.9075 33.7838 26.8348 33.9972 25.7513 33.9972C24.6679 33.9972 23.5951 33.7838 22.5942 33.3692C21.5933 32.9546 20.6838 32.3469 19.9177 31.5809C19.1516 30.8148 18.5439 29.9053 18.1293 28.9044C17.7147 27.9034 17.5013 26.8306 17.5013 25.7472C17.5013 23.5592 18.3705 21.4608 19.9177 19.9136C21.4649 18.3664 23.5633 17.4972 25.7513 17.4972C27.9394 17.4972 30.0378 18.3664 31.585 19.9136C33.1322 21.4608 34.0013 23.5592 34.0013 25.7472Z" fill="black"/>
</svg>
